<svg xmlns="http://www.w3.org/2000/svg" width="30.369" height="30.158" viewBox="0 0 30.369 30.158">
  <g id="Layer_2_16_" transform="translate(0 -0.001)">
    <g id="Group_5" data-name="Group 5" transform="translate(0 0)">
      <path id="Path_1" data-name="Path 1" d="M254.425,423.192c-.25.063-.506.118-.759.165a1.221,1.221,0,0,0,.445,2.4c.3-.056.606-.122.9-.2a1.221,1.221,0,0,0-.59-2.37Z" transform="translate(-236.172 -395.632)" fill="#b4d9b1"/>
      <path id="Path_2" data-name="Path 2" d="M412.814,138.616a1.221,1.221,0,1,0,2.318-.768c-.1-.292-.2-.584-.318-.869a1.221,1.221,0,1,0-2.267.907C412.643,138.125,412.733,138.37,412.814,138.616Z" transform="translate(-385.532 -127.425)" fill="#b4d9b1"/>
      <path id="Path_3" data-name="Path 3" d="M322.139,394.114c-.215.142-.438.28-.662.409a1.221,1.221,0,1,0,1.22,2.116c.266-.154.531-.317.788-.487a1.221,1.221,0,0,0-1.346-2.038Z" transform="translate(-299.919 -368.298)" fill="#b4d9b1"/>
      <path id="Path_4" data-name="Path 4" d="M430.075,208.485a1.221,1.221,0,1,0-2.44.1c.01.258.013.519.007.776a1.221,1.221,0,1,0,2.441.054C430.09,209.1,430.087,208.792,430.075,208.485Z" transform="translate(-399.716 -193.884)" fill="#b4d9b1"/>
      <path id="Path_5" data-name="Path 5" d="M379.242,344.313a1.22,1.22,0,0,0-1.71.244c-.155.207-.318.411-.485.607a1.222,1.222,0,0,0,.138,1.721c.029.025.059.048.09.069a1.221,1.221,0,0,0,1.632-.207c.2-.234.394-.478.579-.725A1.222,1.222,0,0,0,379.242,344.313Z" transform="translate(-352.16 -321.71)" fill="#b4d9b1"/>
      <path id="Path_6" data-name="Path 6" d="M415.617,279.408a1.221,1.221,0,0,0-1.53.8c-.077.246-.163.493-.255.735a1.221,1.221,0,1,0,2.282.87c.11-.288.211-.582.3-.874A1.222,1.222,0,0,0,415.617,279.408Z" transform="translate(-386.74 -261.219)" fill="#b4d9b1"/>
      <path id="Path_7" data-name="Path 7" d="M12.927,29.423a12.6,12.6,0,0,1-3.132-1c-.012-.006-.022-.013-.035-.019-.234-.11-.468-.228-.694-.351l0,0A13.024,13.024,0,0,1,7.848,27.3,12.745,12.745,0,0,1,7.9,6.422l.044-.031a12.759,12.759,0,0,1,14.3-.115l-.954,1.379c-.265.384-.1.663.362.622L25.8,7.906a.683.683,0,0,0,.618-.893L25.305,3c-.125-.45-.443-.5-.709-.12L23.64,4.265a15.074,15.074,0,0,0-11.049-2.35q-.586.1-1.156.247h-.008l-.044.012a15.054,15.054,0,0,0-8.348,5.6c-.018.021-.036.041-.052.064-.069.093-.138.189-.205.284-.11.156-.219.317-.322.477-.013.019-.023.039-.034.059A15.059,15.059,0,0,0,.016,17.536c0,.01,0,.021,0,.031.014.306.038.617.071.923,0,.02.006.038.009.058.034.307.077.616.13.924a15.073,15.073,0,0,0,4.249,8.173l.016.016.006,0a15.384,15.384,0,0,0,1.945,1.626A15.051,15.051,0,0,0,12.5,31.827a1.221,1.221,0,0,0,.431-2.4Z" transform="translate(0 -1.688)" fill="#3bb300"/>
      <path id="Path_8" data-name="Path 8" d="M206.975,83.2a.988.988,0,0,0-.988.988V94.03l9,4.654a.988.988,0,0,0,.907-1.755l-7.933-4.1V84.186A.988.988,0,0,0,206.975,83.2Z" transform="translate(-192.539 -77.875)" fill="#3bb300"/>
    </g>
  </g>
</svg>
