<svg xmlns="http://www.w3.org/2000/svg" width="50.287" height="48.568" viewBox="0 0 50.287 48.568">
  <g id="kitchen-tools" transform="translate(0 -24.193)">
    <g id="Group_6" data-name="Group 6" transform="translate(0 24.193)">
      <path id="Path_9" data-name="Path 9" d="M6.956,24.195C2.318,24.195,0,35.671,0,38.379A6.963,6.963,0,0,0,5.727,45.22V71.534a1.229,1.229,0,0,0,2.458,0V45.22a6.963,6.963,0,0,0,5.727-6.841C13.912,35.671,11.594,24.195,6.956,24.195Zm0,18.683a4.5,4.5,0,0,1-4.5-4.5c0-3.733,2.824-11.727,4.5-11.727s4.5,7.994,4.5,11.727A4.5,4.5,0,0,1,6.956,42.878Z" transform="translate(0 -24.195)" fill="#3bb300"/>
      <path id="Path_10" data-name="Path 10" d="M207.25,24.475a1.229,1.229,0,0,0-2.012.947v46.11a1.229,1.229,0,1,0,2.458,0V49a8.313,8.313,0,0,0,6.143-8.28C213.847,30.05,207.519,24.7,207.25,24.475ZM207.7,46.38V28.687a20.5,20.5,0,0,1,3.685,12.031A5.773,5.773,0,0,1,207.7,46.38Z" transform="translate(-182.977 -24.193)" fill="#3bb300"/>
      <path id="Path_11" data-name="Path 11" d="M365.405,24.194a1.229,1.229,0,0,0-1.229,1.229V31.5h-2.521V25.423a1.229,1.229,0,0,0-2.458,0V31.5h-2.521V25.423a1.229,1.229,0,0,0-2.458,0v11.1a6.217,6.217,0,0,0,4.978,6.084V71.533a1.229,1.229,0,0,0,2.458,0V42.61a6.217,6.217,0,0,0,4.978-6.084v-11.1A1.228,1.228,0,0,0,365.405,24.194Zm-1.229,12.331a3.75,3.75,0,1,1-7.5,0V33.959h7.5v2.567Z" transform="translate(-316.346 -24.194)" fill="#3bb300"/>
    </g>
  </g>
</svg>
