<svg xmlns="http://www.w3.org/2000/svg" width="38.1" height="45.662" viewBox="0 0 38.1 45.662">
  <g id="user" transform="translate(46.676 0.498)">
    <path id="Path_19" data-name="Path 19" d="M53.113,26.2,53,26.153c-.273-.124-.547-.241-.827-.351q-.458-.184-.93-.342c-.248-.081-.5-.158-.751-.232-.385-.111-.774-.212-1.174-.3-.136-.028-.274-.055-.412-.08l-.094-.018c-.236-.046-.474-.087-.714-.122l-.069-.011-.007,0-.069-.009c-.2-.03-.4-.058-.6-.081l-.7-.058a19,19,0,0,0-2.609.007l-.249.021-.116.009-.291.026c-.267.028-.533.065-.8.108l-.078.011c-.181.03-.362.063-.541.1-.2.035-.394.074-.59.117-.379.085-.755.182-1.119.288-.29.083-.576.175-.845.267l-.187.067c-.571.2-1.138.434-1.687.689l-.147.07,0,0A18.625,18.625,0,0,0,26.824,43.052c0,.163.011.323.021.485l.048,1.127h36.96l.05-1.114c.011-.165.021-.329.021-.5A18.6,18.6,0,0,0,53.113,26.2ZM28.637,42.852a16.792,16.792,0,0,1,9.6-14.926l.185-.072.022-.021c.45-.206.915-.393,1.386-.559l.149-.053c.256-.089.512-.17.777-.246.331-.1.668-.184,1.006-.26.175-.037.35-.072.53-.106.143-.026.285-.053.429-.076l.071-.013c.259-.041.519-.078.778-.106l.592-.052a15.905,15.905,0,0,1,2.416,0l.576.048c.142.016.284.035.458.06l.208.03c.217.032.433.069.65.11l.1.019c.122.023.244.046.359.071.357.078.708.17,1.055.271.23.067.458.136.681.21q.424.141.838.306.4.156.786.334l.045.021A16.783,16.783,0,0,1,62.11,42.851H28.637ZM40.9,22.218c.136.057.276.107.417.157l.294.107c.113.043.227.086.343.122a11.483,11.483,0,0,0,3.358.524l.091,0a11.5,11.5,0,0,0,1.168-.06c.13-.013.257-.034.385-.055l.284-.043c.159-.021.319-.044.486-.077.114-.024.225-.053.335-.083l.31-.079c.153-.037.306-.074.458-.121.094-.03.187-.064.278-.1l.249-.09c.178-.062.357-.125.536-.2.07-.03.138-.062.2-.1l.081-.04c.246-.11.49-.222.733-.352l.158-.094c.272-.154.543-.314.817-.5.142-.1.278-.2.412-.311l.464-.361a11.475,11.475,0,0,0,4.2-8.808l.006-.1a11.557,11.557,0,0,0-23.092-.728l-.01.15c-.015.191-.026.382-.026.578A11.541,11.541,0,0,0,40.9,22.218ZM35.668,11.113l.011-.163a9.748,9.748,0,0,1,19.476.533l-.006.1a9.751,9.751,0,0,1-3.558,7.509l-.43.328c-.1.078-.193.156-.314.239-.217.148-.448.281-.681.413l-.13.079c-.2.105-.4.2-.615.294l-.24.116c-.138.057-.283.107-.426.157l-.3.108c-.058.022-.117.045-.174.062-.111.034-.226.061-.339.089l-.361.092c-.078.021-.155.043-.224.057-.121.024-.244.04-.366.057l-.344.052c-.083.015-.167.029-.26.038-.3.032-.605.049-.913.052h-.087a9.707,9.707,0,0,1-2.9-.44c-.081-.025-.159-.057-.238-.087l-.341-.124c-.106-.037-.211-.073-.313-.116a9.739,9.739,0,0,1-5.954-8.985C35.645,11.413,35.657,11.262,35.668,11.113Z" transform="translate(-73)" fill="#3bb300" stroke="#3bb300" stroke-width="1"/>
  </g>
</svg>
